<svg width="24" height="24" viewBox="0 0 24 24" fill="none" xmlns="http://www.w3.org/2000/svg">
<path fill-rule="evenodd" clip-rule="evenodd" d="M13.8994 2.44508C14.4852 1.85929 15.4349 1.85929 16.0207 2.44508L18.8135 5.23792C19.3993 5.82371 19.3993 6.77346 18.8135 7.35924L8.5886 17.5842C8.3499 17.8229 8.03766 17.9741 7.70237 18.0133L4.67889 18.3673C3.74196 18.477 2.93755 17.7049 3.00875 16.7643L3.24756 13.6093C3.27463 13.2516 3.42898 12.9155 3.68262 12.6618L13.8994 2.44508ZM13.1538 6.01909L15.2395 8.10483L17.0458 6.29858L14.96 4.21284L13.1538 6.01909ZM13.8253 9.51904L11.7396 7.43331L5.22787 13.945L5.04883 16.3104L7.29724 16.0471L13.8253 9.51904ZM21 21.9999L3 21.9999V19.9999L21 19.9999V21.9999Z" fill="#595F66"/>
</svg>
