<svg width="16" height="16" viewBox="0 0 16 16" fill="none" xmlns="http://www.w3.org/2000/svg">
<g clip-path="url(#clip0_263_2138)">
<path d="M3.21883 14L3.2055 14.0133L3.1915 14H1.99483C1.81937 13.9998 1.65116 13.93 1.52716 13.8059C1.40315 13.6817 1.3335 13.5135 1.3335 13.338V2.662C1.33472 2.48692 1.40476 2.31934 1.5285 2.19548C1.65225 2.07161 1.81975 2.0014 1.99483 2H14.0055C14.3708 2 14.6668 2.29667 14.6668 2.662V13.338C14.6656 13.5131 14.5956 13.6807 14.4718 13.8045C14.3481 13.9284 14.1806 13.9986 14.0055 14H3.21883ZM13.3335 10V3.33333H2.66683V12.6667L9.3335 6L13.3335 10ZM13.3335 11.8853L9.3335 7.88533L4.55216 12.6667H13.3335V11.8853ZM5.3335 7.33333C4.97987 7.33333 4.64074 7.19286 4.39069 6.94281C4.14064 6.69276 4.00016 6.35362 4.00016 6C4.00016 5.64638 4.14064 5.30724 4.39069 5.05719C4.64074 4.80714 4.97987 4.66667 5.3335 4.66667C5.68712 4.66667 6.02626 4.80714 6.2763 5.05719C6.52635 5.30724 6.66683 5.64638 6.66683 6C6.66683 6.35362 6.52635 6.69276 6.2763 6.94281C6.02626 7.19286 5.68712 7.33333 5.3335 7.33333Z" fill="black" fill-opacity="0.7"/>
</g>
<defs>
<clipPath id="clip0_263_2138">
<rect width="16" height="16" fill="white"/>
</clipPath>
</defs>
</svg>
