<svg width="16" height="16" viewBox="0 0 16 16" fill="none" xmlns="http://www.w3.org/2000/svg">
<path d="M4.00146 7.99089C4.00146 8.07843 4.01871 8.16512 4.05221 8.24601C4.08571 8.32689 4.13482 8.40038 4.19673 8.46229C4.25863 8.5242 4.33213 8.5733 4.41301 8.6068C4.49389 8.64031 4.58058 8.65755 4.66813 8.65755C4.75568 8.65755 4.84237 8.64031 4.92325 8.6068C5.00414 8.5733 5.07763 8.5242 5.13954 8.46229C5.20144 8.40038 5.25055 8.32689 5.28405 8.24601C5.31755 8.16512 5.3348 8.07843 5.3348 7.99089C5.3348 7.90334 5.31755 7.81665 5.28405 7.73576C5.25055 7.65488 5.20144 7.58139 5.13954 7.51948C5.07763 7.45758 5.00414 7.40847 4.92325 7.37497C4.84237 7.34146 4.75568 7.32422 4.66813 7.32422C4.58058 7.32422 4.49389 7.34146 4.41301 7.37497C4.33213 7.40847 4.25863 7.45758 4.19673 7.51948C4.13482 7.58139 4.08571 7.65488 4.05221 7.73576C4.01871 7.81665 4.00146 7.90334 4.00146 7.99089ZM7.3348 7.99089C7.3348 8.1677 7.40504 8.33727 7.53006 8.46229C7.65508 8.58731 7.82465 8.65755 8.00146 8.65755C8.17828 8.65755 8.34785 8.58731 8.47287 8.46229C8.59789 8.33727 8.66813 8.1677 8.66813 7.99089C8.66813 7.81407 8.59789 7.6445 8.47287 7.51948C8.34785 7.39446 8.17828 7.32422 8.00146 7.32422C7.82465 7.32422 7.65508 7.39446 7.53006 7.51948C7.40504 7.6445 7.3348 7.81407 7.3348 7.99089ZM10.6681 7.99089C10.6681 8.1677 10.7384 8.33727 10.8634 8.46229C10.9884 8.58731 11.158 8.65755 11.3348 8.65755C11.5116 8.65755 11.6812 8.58731 11.8062 8.46229C11.9312 8.33727 12.0015 8.1677 12.0015 7.99089C12.0015 7.81407 11.9312 7.6445 11.8062 7.51948C11.6812 7.39446 11.5116 7.32422 11.3348 7.32422C11.158 7.32422 10.9884 7.39446 10.8634 7.51948C10.7384 7.6445 10.6681 7.81407 10.6681 7.99089Z" fill="#595F66"/>
<path d="M8 0C3.58214 0 0 3.58214 0 8C0 12.4179 3.58214 16 8 16C12.4179 16 16 12.4179 16 8C16 3.58214 12.4179 0 8 0ZM8 14.6429C4.33214 14.6429 1.35714 11.6679 1.35714 8C1.35714 4.33214 4.33214 1.35714 8 1.35714C11.6679 1.35714 14.6429 4.33214 14.6429 8C14.6429 11.6679 11.6679 14.6429 8 14.6429Z" fill="#595F66"/>
</svg>
