<svg width="16" height="16" viewBox="0 0 16 16" fill="none" xmlns="http://www.w3.org/2000/svg">
<g clip-path="url(#clip0_272_2306)">
<path d="M13.3335 11.3334H14.6668V12.6667H1.3335V11.3334H2.66683V6.66671C2.66683 5.25222 3.22873 3.89567 4.22893 2.89547C5.22912 1.89528 6.58567 1.33337 8.00016 1.33337C9.41465 1.33337 10.7712 1.89528 11.7714 2.89547C12.7716 3.89567 13.3335 5.25222 13.3335 6.66671V11.3334ZM12.0002 11.3334V6.66671C12.0002 5.60584 11.5787 4.58843 10.8286 3.83828C10.0784 3.08813 9.06103 2.66671 8.00016 2.66671C6.9393 2.66671 5.92188 3.08813 5.17174 3.83828C4.42159 4.58843 4.00016 5.60584 4.00016 6.66671V11.3334H12.0002ZM6.00016 14H10.0002V15.3334H6.00016V14Z" fill="#D0D7E0"/>
<rect x="7.3335" y="0.666626" width="1.33333" height="1.33333" fill="#D0D7E0"/>
</g>
<defs>
<clipPath id="clip0_272_2306">
<rect width="16" height="16" fill="white"/>
</clipPath>
</defs>
</svg>
